<?xml version='1.0' encoding='utf8'?>
<svg class="toyplot-canvas-Canvas" xmlns:toyplot="http://www.sandia.gov/toyplot" xmlns:xlink="http://www.w3.org/1999/xlink" xmlns="http://www.w3.org/2000/svg" width="1000.0px" height="540.0px" viewBox="0 0 1000.0 540.0" preserveAspectRatio="xMidYMid meet" style="background-color:transparent;border-color:#292724;border-style:none;border-width:1.0;fill:rgb(16.1%,15.3%,14.1%);fill-opacity:1.0;font-family:Helvetica;font-size:12px;opacity:1.0;stroke:rgb(16.1%,15.3%,14.1%);stroke-opacity:1.0;stroke-width:1.0" id="t1847ea1a4a1445fb98468f59c51dc22f"><g class="toyplot-coordinates-Cartesian" id="t619e4b5d5cb44bb3923554dadd9d2bb1"><clipPath id="ta7a5152f55f7417593a4ea0192e000d8"><rect x="30.0" y="30.0" width="940.0" height="480.0" /></clipPath><g clip-path="url(#ta7a5152f55f7417593a4ea0192e000d8)"><g class="toytree-mark-Toytree" id="t5c100312f49542718fe959ff7b43e005"><g class="toytree-Edges" style="fill:none;stroke:rgb(14.9%,14.9%,14.9%);stroke-linecap:round;stroke-opacity:1;stroke-width:2"><path d="M 51.5 136.1 L 51.5 210.2 L 98.6 210.2" id="50,49" /><path d="M 98.6 210.2 L 98.6 108.7 L 172.6 108.7" id="49,48" /><path d="M 98.6 210.2 L 98.6 311.7 L 179.8 311.7" id="49,47" /><path d="M 172.6 108.7 L 172.6 138.9 L 252.8 138.9" id="48,46" /><path d="M 179.8 311.7 L 179.8 246.6 L 340.0 246.6" id="47,45" /><path d="M 179.8 311.7 L 179.8 376.9 L 201.3 376.9" id="47,44" /><path d="M 252.8 138.9 L 252.8 107.7 L 407.6 107.7" id="46,43" /><path d="M 252.8 138.9 L 252.8 170.1 L 340.0 170.1" id="46,42" /><path d="M 340.0 246.6 L 340.0 220.1 L 550.3 220.1" id="45,41" /><path d="M 340.0 246.6 L 340.0 273.1 L 413.1 273.1" id="45,40" /><path d="M 201.3 376.9 L 201.3 353.2 L 436.4 353.2" id="44,39" /><path d="M 201.3 376.9 L 201.3 400.6 L 272.8 400.6" id="44,38" /><path d="M 407.6 107.7 L 407.6 120.2 L 568.1 120.2" id="43,37" /><path d="M 340.0 170.1 L 340.0 153.5 L 646.0 153.5" id="42,36" /><path d="M 340.0 170.1 L 340.0 186.8 L 573.5 186.8" id="42,35" /><path d="M 413.1 273.1 L 413.1 253.4 L 600.1 253.4" id="40,34" /><path d="M 413.1 273.1 L 413.1 292.9 L 489.0 292.9" id="40,33" /><path d="M 272.8 400.6 L 272.8 422.9 L 357.0 422.9" id="38,32" /><path d="M 489.0 292.9 L 489.0 307.5 L 558.7 307.5" id="33,31" /><path d="M 357.0 422.9 L 357.0 403.2 L 526.7 403.2" id="32,30" /><path d="M 357.0 422.9 L 357.0 442.7 L 416.9 442.7" id="32,29" /><path d="M 558.7 307.5 L 558.7 319.9 L 648.0 319.9" id="31,28" /><path d="M 416.9 442.7 L 416.9 457.3 L 456.0 457.3" id="29,27" /><path d="M 456.0 457.3 L 456.0 469.8 L 579.2 469.8" id="27,26" /><path d="M 51.5 136.1 L 51.5 61.9 L 713.8 61.9" id="50,25" /><path d="M 172.6 108.7 L 172.6 78.6 L 713.8 78.6" id="48,24" /><path d="M 407.6 107.7 L 407.6 95.2 L 713.8 95.2" id="43,23" /><path d="M 568.1 120.2 L 568.1 111.9 L 713.8 111.9" id="37,22" /><path d="M 568.1 120.2 L 568.1 128.5 L 713.8 128.5" id="37,21" /><path d="M 646.0 153.5 L 646.0 145.2 L 713.8 145.2" id="36,20" /><path d="M 646.0 153.5 L 646.0 161.8 L 713.8 161.8" id="36,19" /><path d="M 573.5 186.8 L 573.5 178.4 L 713.8 178.4" id="35,18" /><path d="M 573.5 186.8 L 573.5 195.1 L 713.8 195.1" id="35,17" /><path d="M 550.3 220.1 L 550.3 211.7 L 713.8 211.7" id="41,16" /><path d="M 550.3 220.1 L 550.3 228.4 L 713.8 228.4" id="41,15" /><path d="M 600.1 253.4 L 600.1 245.0 L 713.8 245.0" id="34,14" /><path d="M 600.1 253.4 L 600.1 261.7 L 713.8 261.7" id="34,13" /><path d="M 489.0 292.9 L 489.0 278.3 L 713.8 278.3" id="33,12" /><path d="M 558.7 307.5 L 558.7 295.0 L 713.8 295.0" id="31,11" /><path d="M 648.0 319.9 L 648.0 311.6 L 713.8 311.6" id="28,10" /><path d="M 648.0 319.9 L 648.0 328.3 L 713.8 328.3" id="28,9" /><path d="M 436.4 353.2 L 436.4 344.9 L 713.8 344.9" id="39,8" /><path d="M 436.4 353.2 L 436.4 361.6 L 713.8 361.6" id="39,7" /><path d="M 272.8 400.6 L 272.8 378.2 L 713.8 378.2" id="38,6" /><path d="M 526.7 403.2 L 526.7 394.8 L 713.8 394.8" id="30,5" /><path d="M 526.7 403.2 L 526.7 411.5 L 713.8 411.5" id="30,4" /><path d="M 416.9 442.7 L 416.9 428.1 L 713.8 428.1" id="29,3" /><path d="M 456.0 457.3 L 456.0 444.8 L 713.8 444.8" id="27,2" /><path d="M 579.2 469.8 L 579.2 461.4 L 713.8 461.4" id="26,1" /><path d="M 579.2 469.8 L 579.2 478.1 L 713.8 478.1" id="26,0" /></g><g class="toytree-AlignEdges" style="stroke:rgb(66.3%,66.3%,66.3%);stroke-dasharray:2, 4;stroke-linecap:round;stroke-opacity:1.0;stroke-width:2"><path d="M 713.8 478.1 L 713.8 478.1" /><path d="M 713.8 461.4 L 713.8 461.4" /><path d="M 713.8 444.8 L 713.8 444.8" /><path d="M 713.8 428.1 L 713.8 428.1" /><path d="M 713.8 411.5 L 713.8 411.5" /><path d="M 713.8 394.8 L 713.8 394.8" /><path d="M 713.8 378.2 L 713.8 378.2" /><path d="M 713.8 361.6 L 713.8 361.6" /><path d="M 713.8 344.9 L 713.8 344.9" /><path d="M 713.8 328.3 L 713.8 328.3" /><path d="M 713.8 311.6 L 713.8 311.6" /><path d="M 713.8 295.0 L 713.8 295.0" /><path d="M 713.8 278.3 L 713.8 278.3" /><path d="M 713.8 261.7 L 713.8 261.7" /><path d="M 713.8 245.0 L 713.8 245.0" /><path d="M 713.8 228.4 L 713.8 228.4" /><path d="M 713.8 211.7 L 713.8 211.7" /><path d="M 713.8 195.1 L 713.8 195.1" /><path d="M 713.8 178.4 L 713.8 178.4" /><path d="M 713.8 161.8 L 713.8 161.8" /><path d="M 713.8 145.2 L 713.8 145.2" /><path d="M 713.8 128.5 L 713.8 128.5" /><path d="M 713.8 111.9 L 713.8 111.9" /><path d="M 713.8 95.2 L 713.8 95.2" /><path d="M 713.8 78.6 L 713.8 78.6" /><path d="M 713.8 61.9 L 713.8 61.9" /></g><g class="toytree-TipLabels" style="fill:rgb(14.9%,14.9%,14.9%);fill-opacity:1.0;font-family:helvetica;font-size:11px;font-weight:normal;stroke:none;white-space:pre"><g transform="translate(713.76,478.08)rotate(0)"><a href="https://glottolog.org/resource/languoid/id/nucl1301#############"><text x="15.00" y="2.81" style="" fill="#0000ff">TRK - Turkish [nucl1301#############]</text></a></g><g transform="translate(713.76,461.44)rotate(0)"><a href="https://glottolog.org/resource/languoid/id/gaga1249#############"><text x="15.00" y="2.81" style="" fill="#0000ff">GAGX - Gagauz [gaga1249#############]</text></a></g><g transform="translate(713.76,444.79)rotate(0)"><a href="https://glottolog.org/resource/languoid/id/sout2697#############"><text x="15.00" y="2.81" style="" fill="#0000ff">AZB - South Azerbaijani [sout2697#############]</text></a></g><g transform="translate(713.76,428.14)rotate(0)"><a href="https://glottolog.org/resource/languoid/id/turk1303#############"><text x="15.00" y="2.81" style="" fill="#0000ff">KHAL - Khalaj Turkic [turk1303#############]</text></a></g><g transform="translate(713.76,411.50)rotate(0)"><a href="https://glottolog.org/resource/languoid/id/turk1304#############"><text x="15.00" y="2.81" style="" fill="#0000ff">TRM - Turkmen [turk1304#############]</text></a></g><g transform="translate(713.76,394.85)rotate(0)"><a href="https://glottolog.org/resource/languoid/id/sala1264#############"><text x="15.00" y="2.81" style="" fill="#0000ff">SAL - Salar [sala1264#############]</text></a></g><g transform="translate(713.76,378.20)rotate(0)"><a href="https://glottolog.org/resource/languoid/id/kara1464#############"><text x="15.00" y="2.81" style="" fill="#0000ff">KRMX - Karaim [kara1464#############]</text></a></g><g transform="translate(713.76,361.56)rotate(0)"><a href="https://glottolog.org/resource/languoid/id/nort2690#############"><text x="15.00" y="2.81" style="" fill="#0000ff">UZB - Northern Uzbek [nort2690#############]</text></a></g><g transform="translate(713.76,344.91)rotate(0)"><a href="https://glottolog.org/resource/languoid/id/uigh1240#############"><text x="15.00" y="2.81" style="" fill="#0000ff">UIG - Uighur [uigh1240#############]</text></a></g><g transform="translate(713.76,328.26)rotate(0)"><a href="https://glottolog.org/resource/languoid/id/kara1467#############"><text x="15.00" y="2.81" style="" fill="#0000ff">KLPX - Kara-Kalpak [kara1467#############]</text></a></g><g transform="translate(713.76,311.62)rotate(0)"><a href="https://glottolog.org/resource/languoid/id/kaza1248#############"><text x="15.00" y="2.81" style="" fill="#0000ff">KAZ - Kazakh [kaza1248#############]</text></a></g><g transform="translate(713.76,294.97)rotate(0)"><a href="https://glottolog.org/resource/languoid/id/noga1249#############"><text x="15.00" y="2.81" style="" fill="#0000ff">NOGX - Nogai [noga1249#############]</text></a></g><g transform="translate(713.76,278.32)rotate(0)"><a href="https://glottolog.org/resource/languoid/id/kirg1245#############"><text x="15.00" y="2.81" style="" fill="#0000ff">KRG - Kirghiz [kirg1245#############]</text></a></g><g transform="translate(713.76,261.68)rotate(0)"><a href="https://glottolog.org/resource/languoid/id/tata1255#############"><text x="15.00" y="2.81" style="" fill="#0000ff">TAT - Tatar [tata1255#############]</text></a></g><g transform="translate(713.76,245.03)rotate(0)"><a href="https://glottolog.org/resource/languoid/id/bash1264#############"><text x="15.00" y="2.81" style="" fill="#0000ff">BAS - Bashkir [bash1264#############]</text></a></g><g transform="translate(713.76,228.38)rotate(0)"><a href="https://glottolog.org/resource/languoid/id/kumy1244#############"><text x="15.00" y="2.81" style="" fill="#0000ff">QUM - Kumyk [kumy1244#############]</text></a></g><g transform="translate(713.76,211.74)rotate(0)"><a href="https://glottolog.org/resource/languoid/id/balk1254#############"><text x="15.00" y="2.81" style="" fill="#0000ff">BLKX - Rumelian Turkish [balk1254#############]</text></a></g><g transform="translate(713.76,195.09)rotate(0)"><a href="https://glottolog.org/resource/languoid/id/tuvi1240#############"><text x="15.00" y="2.81" style="" fill="#0000ff">TUV - Tuvinian [tuvi1240#############]</text></a></g><g transform="translate(713.76,178.44)rotate(0)"><a href="https://glottolog.org/resource/languoid/id/kara1462#############"><text x="15.00" y="2.81" style="" fill="#0000ff">TOF - Taiga Sayan Turkic [kara1462#############]</text></a></g><g transform="translate(713.76,161.80)rotate(0)"><a href="https://glottolog.org/resource/languoid/id/yaku1245#############"><text x="15.00" y="2.81" style="" fill="#0000ff">JAK - Sakha [yaku1245#############]</text></a></g><g transform="translate(713.76,145.15)rotate(0)"><a href="https://glottolog.org/resource/languoid/id/dolg1241#############"><text x="15.00" y="2.81" style="" fill="#0000ff">DOLG - Dolgan [dolg1241#############]</text></a></g><g transform="translate(713.76,128.50)rotate(0)"><a href="https://glottolog.org/resource/languoid/id/shor1247#############"><text x="15.00" y="2.81" style="" fill="#0000ff">SHR - Mrassu Shor-Tutal [shor1247#############]</text></a></g><g transform="translate(713.76,111.86)rotate(0)"><a href="https://glottolog.org/resource/languoid/id/khak1248#############"><text x="15.00" y="2.81" style="" fill="#0000ff">HAK - Khakas [khak1248#############]</text></a></g><g transform="translate(713.76,95.21)rotate(0)"><a href="https://glottolog.org/resource/languoid/id/sout2694#############"><text x="15.00" y="2.81" style="" fill="#0000ff">ALT - Southern Altai [sout2694#############]</text></a></g><g transform="translate(713.76,78.56)rotate(0)"><a href="https://glottolog.org/resource/languoid/id/west2402#############"><text x="15.00" y="2.81" style="" fill="#0000ff">SJG - West Yugur [west2402#############]</text></a></g><g transform="translate(713.76,61.92)rotate(0)"><a href="https://glottolog.org/resource/languoid/id/chuv1255#############"><text x="15.00" y="2.81" style="" fill="#0000ff">CHV - Chuvash [chuv1255#############]</text></a></g></g></g></g><g class="toyplot-coordinates-Axis" id="t64fd1f1991ca42cc8080e37684df9490" transform="translate(50.0,490.0)translate(0,20.0)"><line x1="1.4717581868592962" y1="0" x2="663.7629422735557" y2="0" style="" /><g><line x1="663.7629422735557" y1="0" x2="663.7629422735557" y2="-5" style="" /><line x1="590.1750329305895" y1="0" x2="590.1750329305895" y2="-5" style="" /><line x1="516.5871235876232" y1="0" x2="516.5871235876232" y2="-5" style="" /><line x1="442.9992142446569" y1="0" x2="442.9992142446569" y2="-5" style="" /><line x1="369.41130490169064" y1="0" x2="369.41130490169064" y2="-5" style="" /><line x1="295.82339555872437" y1="0" x2="295.82339555872437" y2="-5" style="" /><line x1="222.2354862157581" y1="0" x2="222.2354862157581" y2="-5" style="" /><line x1="148.6475768727918" y1="0" x2="148.6475768727918" y2="-5" style="" /><line x1="75.05966752982555" y1="0" x2="75.05966752982555" y2="-5" style="" /><line x1="1.4717581868592962" y1="0" x2="1.4717581868592962" y2="-5" style="" /></g><g><g transform="translate(663.7629422735557,6)"><text x="-2.78" y="8.555" style="fill:rgb(16.1%,15.3%,14.1%);fill-opacity:1.0;font-family:helvetica;font-size:10.0px;font-weight:normal;stroke:none;vertical-align:baseline;white-space:pre">0</text></g><g transform="translate(590.1750329305895,6)"><text x="-8.34" y="8.555" style="fill:rgb(16.1%,15.3%,14.1%);fill-opacity:1.0;font-family:helvetica;font-size:10.0px;font-weight:normal;stroke:none;vertical-align:baseline;white-space:pre">244</text></g><g transform="translate(516.5871235876232,6)"><text x="-8.34" y="8.555" style="fill:rgb(16.1%,15.3%,14.1%);fill-opacity:1.0;font-family:helvetica;font-size:10.0px;font-weight:normal;stroke:none;vertical-align:baseline;white-space:pre">488</text></g><g transform="translate(442.9992142446569,6)"><text x="-8.34" y="8.555" style="fill:rgb(16.1%,15.3%,14.1%);fill-opacity:1.0;font-family:helvetica;font-size:10.0px;font-weight:normal;stroke:none;vertical-align:baseline;white-space:pre">732</text></g><g transform="translate(369.41130490169064,6)"><text x="-8.34" y="8.555" style="fill:rgb(16.1%,15.3%,14.1%);fill-opacity:1.0;font-family:helvetica;font-size:10.0px;font-weight:normal;stroke:none;vertical-align:baseline;white-space:pre">975</text></g><g transform="translate(295.82339555872437,6)"><text x="-11.12" y="8.555" style="fill:rgb(16.1%,15.3%,14.1%);fill-opacity:1.0;font-family:helvetica;font-size:10.0px;font-weight:normal;stroke:none;vertical-align:baseline;white-space:pre">1219</text></g><g transform="translate(222.2354862157581,6)"><text x="-11.12" y="8.555" style="fill:rgb(16.1%,15.3%,14.1%);fill-opacity:1.0;font-family:helvetica;font-size:10.0px;font-weight:normal;stroke:none;vertical-align:baseline;white-space:pre">1463</text></g><g transform="translate(148.6475768727918,6)"><text x="-11.12" y="8.555" style="fill:rgb(16.1%,15.3%,14.1%);fill-opacity:1.0;font-family:helvetica;font-size:10.0px;font-weight:normal;stroke:none;vertical-align:baseline;white-space:pre">1707</text></g><g transform="translate(75.05966752982555,6)"><text x="-11.12" y="8.555" style="fill:rgb(16.1%,15.3%,14.1%);fill-opacity:1.0;font-family:helvetica;font-size:10.0px;font-weight:normal;stroke:none;vertical-align:baseline;white-space:pre">1951</text></g><g transform="translate(1.4717581868592962,6)"><text x="-11.12" y="8.555" style="fill:rgb(16.1%,15.3%,14.1%);fill-opacity:1.0;font-family:helvetica;font-size:10.0px;font-weight:normal;stroke:none;vertical-align:baseline;white-space:pre">2195</text></g></g><g class="toyplot-coordinates-Axis-coordinates" style="visibility:hidden" transform=""><line x1="0" x2="0" y1="-3.0" y2="4.5" style="stroke:rgb(43.9%,50.2%,56.5%);stroke-opacity:1.0;stroke-width:1.0" /><text x="0" y="-6" style="alignment-baseline:alphabetic;fill:rgb(43.9%,50.2%,56.5%);fill-opacity:1.0;font-size:10px;font-weight:normal;stroke:none;text-anchor:middle" /></g></g><g transform="translate(500.0,42.0)"><text x="-266.882" y="-4.823" style="fill:rgb(16.1%,15.3%,14.1%);fill-opacity:1.0;font-family:helvetica;font-size:14.0px;font-weight:bold;stroke:none;vertical-align:baseline;white-space:pre">Summary tree of a Bayesian analysis of the Turkic family with branches in years</text></g></g></svg>